<?xml version="1.0" encoding="UTF-8" standalone="no"?>
<!DOCTYPE svg PUBLIC "-//W3C//DTD SVG 1.1//EN" "http://www.w3.org/Graphics/SVG/1.1/DTD/svg11.dtd">
<svg viewBox="0 0 615 890" version="1.1" xmlns="http://www.w3.org/2000/svg" xmlns:xlink="http://www.w3.org/1999/xlink" fill-rule="evenodd">
	<g>
		<title>Pull-up Resistor Circuit Schematic, by Adam Stanislav</title>
		<desc>
			A pull-up resistor works on the same principle as the pull-down resistor from
			https://openclipart.org/detail/287688/pulldown-resistor-circuit-schematic but
			the switch S1 is connected to the ground and the R2 resistor to Vin. So, in this case
			if the switch S1 is closed, electricity takes the path of the least resistance
			and flows from the Input pin through the 100Ω resistor R1 to the ground, thus
			interrupting its flow from the positive terminal Vin to the Input pin.
			But if the switch is open, the electricity flows from the positive terminal Vin
			to the Input pin through the two resistors R2 and R1. This is the exact opposite
			of the functionality of a pull-down resistor.

			In a pull-down resistor circuit closing the switch starts the flow of electric
			current between Vin and the Input pin, while in the pull-up resistor circuit
			closing the switch stops that flow. Both circuit types are commonly used
			in digital electronics.
		</desc>

		<path id="Schematic" d="m486.744 843.531l0.281 0.01l0.282 0.027l0.279 0.043l0.275 0.063l0.272 0.078l0.265 0.096l0.26 0.113l0.252 0.127l0.242 0.144l0.235 0.159l0.222 0.173l0.213 0.188l0.199 0.199l0.186 0.211l0.174 0.225l0.158 0.232l0.145 0.242l0.129 0.252l0.111 0.26l0.096 0.266l0.08 0.271l0.06 0.276l0.045 0.279l0.025 0.281l0.01 0.283l-0.01 0.282l-0.025 0.281l-0.045 0.279l-0.06 0.275l-0.08 0.272l-0.096 0.266l-0.111 0.259l-0.129 0.252l-0.145 0.243l-0.158 0.234l-0.174 0.223l-0.186 0.21l-0.199 0.202l-0.213 0.185l-0.222 0.174l-0.235 0.158l-0.242 0.145l-0.252 0.129l-0.26 0.111l-0.265 0.096l-0.272 0.08l-0.275 0.06l-0.279 0.043l-0.282 0.028l-0.281 0.009h-44.603l-0.284-0.009l-0.281-0.028l-0.279-0.043l-0.276-0.06l-0.269-0.08l-0.268-0.096l-0.257-0.111l-0.252-0.129l-0.245-0.145l-0.234-0.158l-0.223-0.174l-0.211-0.185l-0.201-0.202l-0.185-0.21l-0.174-0.223l-0.158-0.234l-0.145-0.243l-0.127-0.252l-0.113-0.259l-0.096-0.266l-0.078-0.272l-0.062-0.275l-0.043-0.279l-0.028-0.281l-0.007-0.282l0.007-0.283l0.028-0.281l0.043-0.279l0.062-0.276l0.078-0.271l0.096-0.266l0.113-0.26l0.127-0.252l0.145-0.242l0.158-0.232l0.174-0.225l0.185-0.211l0.202-0.199l0.21-0.188l0.223-0.173l0.234-0.159l0.245-0.144l0.252-0.127l0.257-0.113l0.268-0.096l0.269-0.078l0.276-0.063l0.279-0.043l0.281-0.027l0.284-0.01h44.603zm22.342-27.168l0.393 0.018l0.386 0.053l0.383 0.084l0.375 0.117l0.363 0.15l0.348 0.182l0.33 0.211l0.313 0.238l0.289 0.266l0.263 0.289l0.241 0.31l0.21 0.33l0.18 0.35l0.151 0.361l0.119 0.375l0.084 0.383l0.05 0.389l0.018 0.392l-0.018 0.393l-0.05 0.387l-0.084 0.382l-0.119 0.375l-0.151 0.364l-0.18 0.347l-0.21 0.33l-0.241 0.313l-0.263 0.287l-0.289 0.266l-0.313 0.24l-0.33 0.211l-0.348 0.18l-0.363 0.15l-0.375 0.117l-0.383 0.086l-0.386 0.051l-0.393 0.017h-89.277l-0.393-0.017l-0.389-0.051l-0.382-0.086l-0.375-0.117l-0.362-0.15l-0.347-0.18l-0.332-0.211l-0.311-0.24l-0.289-0.266l-0.266-0.287l-0.238-0.313l-0.211-0.33l-0.182-0.347l-0.15-0.364l-0.117-0.375l-0.084-0.382l-0.053-0.387l-0.015-0.393l0.015-0.392l0.053-0.389l0.084-0.383l0.117-0.375l0.15-0.361l0.182-0.35l0.211-0.33l0.238-0.31l0.266-0.289l0.289-0.266l0.311-0.238l0.332-0.211l0.347-0.182l0.362-0.15l0.375-0.117l0.382-0.084l0.389-0.053l0.393-0.018h89.277zm-48.371-27.426l0.248-139.248l-35.826-125.433l-0.088-0.397l-0.043-0.406l0.006-0.404l0.051-0.404l0.099-0.395l0.145-0.381l0.185-0.361l0.229-0.336l0.265-0.309l0.299-0.275l0.33-0.238l0.354-0.2l0.377-0.156l0.39-0.111l0.401-0.067l0.406-0.017l0.406 0.027l0.401 0.076l0.386 0.121l0.371 0.166l0.35 0.209l0.324 0.247l0.291 0.283l0.258 0.314l0.221 0.344l0.178 0.365l0.132 0.385l35.961 125.906l0.006 0.022l0.002 0.009l0.07 0.305l0.006 0.043l0.004 0.018l0.004 0.043l0.029 0.207l0.004 0.109l0.006 0.047v0.051l0.004 0.107l0.252 139.734h63.189l0.487 0.026l0.478 0.08l0.469 0.129l0.453 0.18l0.432 0.228l0.402 0.274l0.371 0.316l0.334 0.351l0.295 0.389l0.25 0.416l0.205 0.444l0.156 0.46l0.106 0.475l0.051 0.484v0.487l-0.051 0.484l-0.106 0.477l-0.156 0.461l-0.205 0.441l-0.25 0.416l-0.295 0.389l-0.334 0.353l-0.371 0.315l-0.402 0.273l-0.432 0.229l-0.453 0.179l-0.469 0.131l-0.478 0.078l-0.487 0.028h-133.892l-0.486-0.028l-0.481-0.078l-0.469-0.131l-0.453-0.179l-0.429-0.229l-0.403-0.273l-0.371-0.315l-0.336-0.353l-0.293-0.389l-0.252-0.416l-0.205-0.441l-0.154-0.461l-0.106-0.477l-0.052-0.484v-0.487l0.052-0.484l0.106-0.475l0.154-0.46l0.205-0.444l0.252-0.416l0.293-0.389l0.336-0.351l0.371-0.316l0.403-0.274l0.429-0.228l0.453-0.18l0.469-0.129l0.481-0.08l0.486-0.026h63.209zm71.375-721.847l0.486 0.027l0.481 0.078l0.468 0.131l0.454 0.18l0.429 0.228l0.403 0.274l0.371 0.314l0.336 0.354l0.295 0.386l0.25 0.418l0.205 0.442l0.154 0.463l0.105 0.474l0.053 0.485v0.486l-0.053 0.484l-0.105 0.475l-0.154 0.463l-0.205 0.441l-0.25 0.416l-0.295 0.389l-0.336 0.354l-0.371 0.314l-0.403 0.273l-0.429 0.229l-0.454 0.18l-0.468 0.131l-0.481 0.078l-0.486 0.025h-63.697l-0.436 140.482l26.037 9.764l0.098 0.037l0.025 0.014l0.022 0.008l0.136 0.068l0.133 0.08l0.035 0.026l0.03 0.017l0.029 0.024l0.031 0.021l0.121 0.098l0.112 0.103l0.017 0.02l0.022 0.019l0.027 0.032l0.039 0.042l0.07 0.088l0.004 0.004l0.024 0.03l0.086 0.127l0.015 0.023l0.065 0.109l0.031 0.065l0.01 0.017l0.025 0.055l0.061 0.143l0.047 0.146l0.007 0.027l0.012 0.04l0.008 0.039l0.012 0.045l0.013 0.078l0.01 0.05l0.002 0.022l0.018 0.154l0.002 0.037v0.006l0.003 0.112l-0.003 0.103v0.004l-0.002 0.047l-0.018 0.152l-0.002 0.018l-0.01 0.045l-0.015 0.088l-0.012 0.046l-0.008 0.036l-0.012 0.037l-0.007 0.031l-0.022 0.062l-0.023 0.079l-0.004 0.005l-0.059 0.141l-0.013 0.027l-0.012 0.028l-0.014 0.025l-0.029 0.059l-0.049 0.082l-0.014 0.023l-0.017 0.028l-0.088 0.125l-0.02 0.027l-0.041 0.049l-0.037 0.045l-0.039 0.043l-0.025 0.029l-0.039 0.041l-0.114 0.103l-0.007 0.006l-0.114 0.09l-0.035 0.026l-0.023 0.017l-0.069 0.047l-0.113 0.066l-0.004 0.002l-0.013 0.008l-0.139 0.07l-0.143 0.057l-0.146 0.051l-0.024 0.006l-50.896 15.906l50.959 15.926l0.004 0.002h0.002l0.199 0.074l0.006 0.002l0.191 0.094l0.004 0.002l0.182 0.113l0.004 0.002l0.168 0.131l0.004 0.004l0.156 0.146l0.004 0.004l0.138 0.162l0.002 0.004l0.123 0.176l0.002 0.004l0.104 0.187v0.002l0.002 0.002l0.086 0.195l0.064 0.209l0.002 0.006l0.043 0.209v0.004l0.022 0.213v0.225l-0.022 0.213v0.003l-0.043 0.209l-0.002 0.006l-0.004 0.014l-0.06 0.189v0.004l-0.074 0.172l-0.012 0.026l-0.002 0.002v0.001l-0.104 0.188l-0.002 0.004l-0.123 0.176l-0.002 0.004l-0.138 0.162l-0.002 0.002l-0.002 0.002l-0.156 0.146l-0.004 0.004l-0.168 0.131l-0.004 0.002l-0.182 0.113l-0.004 0.002l-0.191 0.096l-0.006 0.002l-0.199 0.074l-0.033 0.008l-50.932 15.918l50.959 15.925l0.004 0.002h0.002l0.199 0.075l0.006 0.002l0.191 0.093l0.004 0.002l0.182 0.114l0.004 0.003l0.17 0.131l0.002 0.002l0.156 0.149l0.004 0.004l0.138 0.162l0.002 0.004l0.123 0.173l0.106 0.192l0.002 0.006l0.086 0.195l0.064 0.209l0.002 0.006l0.043 0.209v0.004l0.022 0.213v0.222l-0.022 0.213v0.004l-0.045 0.211v0.004l-0.064 0.209l-0.088 0.201l-0.104 0.188l-0.002 0.004l-0.123 0.173l-0.002 0.004l-0.14 0.162l-0.002 0.004l-0.084 0.08l-0.072 0.069l-0.004 0.002l-0.094 0.074l-0.074 0.057l-0.004 0.003l-0.182 0.114l-0.004 0.002l-0.191 0.093l-0.006 0.002l-0.199 0.075h-0.002l-0.004 0.002l-50.959 15.925l50.959 15.924l0.004 0.002h0.002l0.199 0.074l0.006 0.002l0.191 0.094l0.186 0.115l0.004 0.004l0.168 0.131l0.004 0.004l0.156 0.146l0.004 0.004l0.138 0.162l0.002 0.004l0.123 0.174l0.002 0.004l0.104 0.188l0.002 0.005l0.086 0.196l0.064 0.209l0.002 0.004l0.043 0.211v0.003l0.022 0.213v0.223l-0.022 0.213v0.006l-0.043 0.209l-0.002 0.004l-0.023 0.076l-0.041 0.129v0.004l-0.074 0.172l-0.012 0.025l-0.002 0.002v0.002l-0.104 0.185l-0.002 0.006l-0.125 0.18l-0.142 0.166l-0.088 0.082l-0.068 0.064l-0.004 0.002l-0.094 0.075l-0.074 0.056l-0.004 0.004l-0.182 0.113l-0.004 0.002l-0.191 0.094l-0.006 0.002l-0.199 0.074h-0.002l-0.004 0.002l-50.225 15.694l18.66 4.664l0.217-0.157l0.272-0.162l0.281-0.134l0.295-0.112l0.303-0.084l0.306-0.054l0.315-0.03h0.312l0.313 0.03l0.308 0.054l0.305 0.084l0.293 0.112l0.281 0.134l0.27 0.162l0.254 0.184l0.238 0.207l0.217 0.227l0.193 0.246l0.174 0.261l0.148 0.276l0.123 0.289l0.098 0.299l0.07 0.304l0.041 0.313l0.014 0.312v161.854l-0.003 0.157l-0.011 0.157l-0.018 0.156l-0.024 0.155l-0.032 0.153l-0.038 0.152l-0.045 0.151l-0.052 0.148l-0.058 0.146l-0.065 0.142l-0.072 0.14l-0.077 0.137l-0.083 0.133l-0.09 0.129l-0.095 0.125l-0.101 0.12l-0.105 0.116l-0.111 0.111l-0.116 0.106l-0.121 0.1l-0.125 0.095l-0.129 0.09l-0.132 0.083l-0.137 0.078l-0.14 0.071l-0.143 0.065l-0.145 0.058l-0.148 0.052l-0.151 0.045l-0.152 0.039l-0.154 0.031l-0.155 0.025l-0.156 0.017l-0.156 0.011l-0.157 0.003l-0.157-0.003l-0.157-0.011l-0.156-0.017l-0.155-0.025l-0.153-0.031l-0.152-0.039l-0.151-0.045l-0.148-0.052l-0.146-0.058l-0.142-0.065l-0.14-0.071l-0.137-0.078l-0.133-0.083l-0.129-0.09l-0.125-0.095l-0.12-0.1l-0.116-0.106l-0.111-0.111l-0.106-0.116l-0.1-0.12l-0.095-0.125l-0.09-0.129l-0.083-0.133l-0.078-0.137l-0.071-0.14l-0.065-0.142l-0.058-0.146l-0.052-0.148l-0.045-0.151l-0.039-0.152l-0.031-0.153l-0.025-0.155l-0.017-0.156l-0.011-0.157l-0.003-0.157v-86.414h-67.098l-6.451 25.803l-0.033 0.125l-0.037 0.097l-0.026 0.071l-0.009 0.021l-0.006 0.016l-0.047 0.101l-0.039 0.074l-0.01 0.02l-0.023 0.043l-0.084 0.131l-0.008 0.012l-0.084 0.111l-0.043 0.051l-0.008 0.009l-0.049 0.057l-0.099 0.102l-0.002 0.002l-0.006 0.005l-0.117 0.102l-0.038 0.029l-0.005 0.004l-0.08 0.061l-0.082 0.052l-0.018 0.012l-0.029 0.018l-0.135 0.076l-0.016 0.008l-0.011 0.006l-0.114 0.05l-0.041 0.016l-0.047 0.02l-0.043 0.013l-0.011 0.004l-0.155 0.047l-0.144 0.031l-0.043 0.006l-0.026 0.006l-0.021 0.002l-0.062 0.01l-0.155 0.011h-0.152l-0.047-0.002l-0.027-0.002l-0.08-0.005l-0.071-0.01l-0.039-0.004l-0.021-0.004l-0.024-0.004l-0.148-0.031l-0.022-0.006l-0.019-0.006l-0.108-0.031l-0.037-0.014l-0.045-0.013l-0.035-0.016l-0.027-0.01l-0.09-0.041l-0.049-0.021l-0.002-0.002l-0.136-0.073l-0.038-0.023l-0.013-0.008l-0.018-0.011l-0.06-0.04l-0.092-0.068l-0.01-0.006l-0.004-0.002l-0.019-0.015l-0.118-0.102l-0.013-0.014l-0.012-0.009l-0.021-0.024l-0.063-0.06l-0.043-0.049l-0.023-0.026l-0.016-0.019l-0.02-0.024l-0.091-0.123l-0.006-0.007l-0.016-0.026l-0.062-0.095l-0.024-0.041l-0.013-0.024l-0.014-0.027l-0.024-0.043l-0.066-0.141l-0.053-0.142l-0.011-0.036l-0.004-0.013l-15.926-50.959l-15.926 50.959l-0.002 0.004l-0.072 0.203l-0.098 0.195l-0.031 0.049l-0.084 0.137l-0.133 0.173l-0.15 0.159l-0.004 0.004l-0.162 0.138l-0.004 0.002l-0.176 0.123l-0.004 0.002l-0.191 0.108l-0.197 0.084l-0.004 0.002l-0.203 0.062l-0.106 0.022l-0.113 0.023l-0.219 0.021h-0.219l-0.213-0.021h-0.004l-0.109-0.023l-0.099-0.02l-0.209-0.064l-0.006-0.002l-0.039-0.018l-0.157-0.066l-0.172-0.096l-0.023-0.014l-0.18-0.125l-0.115-0.099l-0.047-0.039l-0.004-0.004l-0.15-0.159l-0.135-0.173l-0.086-0.141l-0.025-0.041l-0.1-0.199l-0.076-0.207l-15.924-50.959l-15.926 50.961l-0.001 0.004l-0.075 0.201l-0.095 0.195l-0.004 0.004l-0.114 0.182l-0.132 0.173l-0.002 0.002l-0.149 0.157h-0.002l-0.002 0.004l-0.047 0.039l-0.115 0.099l-0.004 0.002l-0.176 0.123l-0.003 0.002l-0.192 0.108l-0.199 0.086l-0.205 0.062l-0.129 0.027l-0.09 0.018l-0.219 0.021h-0.216l-0.213-0.021h-0.006l-0.108-0.023l-0.101-0.02l-0.08-0.025l-0.133-0.041l-0.084-0.038l-0.113-0.046l-0.172-0.096l-0.024-0.014l-0.179-0.125l-0.063-0.053l-0.099-0.085l-0.071-0.077l-0.084-0.086l-0.09-0.119l-0.041-0.05l-0.115-0.186l-0.002-0.004l-0.095-0.195l-0.053-0.143l-0.022-0.058v-0.002l-0.002-0.004l-15.925-50.959l-15.924 50.959l-0.002 0.004l-0.022 0.06l-0.054 0.147l-0.094 0.191l-0.031 0.049l-0.088 0.141l-0.131 0.169l-0.002 0.002l-0.149 0.157l-0.05 0.043l-0.119 0.101l-0.18 0.125l-0.192 0.108l-0.199 0.086h-0.002l-0.203 0.062l-0.105 0.022l-0.114 0.023l-0.216 0.021h-0.219l-0.215-0.021h-0.004l-0.109-0.023l-0.1-0.02l-0.006-0.002l-0.207-0.064l-0.197-0.084l-0.172-0.096l-0.019-0.012l-0.004-0.002l-0.174-0.123l-0.004-0.002l-0.115-0.099l-0.047-0.039l-0.002-0.004h-0.002l-0.149-0.157l-0.001-0.002l-0.131-0.169l-0.004-0.004l-0.084-0.137l-0.03-0.045l-0.001-0.004l-0.094-0.191l-0.002-0.004l-0.053-0.143l-0.021-0.058v-0.002l-0.002-0.004l-16.112-51.557l-7.619 20.322l0.094 0.159l0.137 0.283l0.109 0.293l0.084 0.302l0.057 0.309l0.027 0.313v0.312l-0.027 0.315l-0.057 0.306l-0.084 0.305l-0.109 0.293l-0.137 0.281l-0.16 0.272l-0.186 0.253l-0.207 0.237l-0.226 0.217l-0.244 0.195l-0.262 0.172l-0.278 0.148l-0.289 0.123l-0.296 0.098l-0.307 0.07l-0.311 0.041l-0.314 0.016h-71.942l-0.312-0.016l-0.313-0.041l-0.304-0.07l-0.299-0.098l-0.289-0.123l-0.276-0.148l-0.261-0.172l-0.246-0.195l-0.227-0.217l-0.207-0.237l-0.184-0.253l-0.162-0.272l-0.134-0.281l-0.112-0.293l-0.084-0.305l-0.054-0.306l-0.03-0.315v-0.312l0.03-0.313l0.054-0.309l0.084-0.302l0.112-0.293l0.134-0.283l0.162-0.27l0.184-0.254l0.207-0.236l0.227-0.217l0.246-0.195l0.261-0.174l0.276-0.149l0.289-0.123l0.299-0.097l0.304-0.071l0.313-0.041l0.312-0.013h70.948l9.726-25.93l0.039-0.107l0.016-0.041l0.021-0.055l0.01-0.02l0.012-0.029l0.068-0.137l0.08-0.132l0.026-0.036l0.017-0.029l0.024-0.029l0.021-0.031l0.09-0.112l0.008-0.01l0.103-0.111l0.02-0.017l0.02-0.022l0.031-0.027l0.043-0.039l0.062-0.049l0.03-0.026l0.017-0.011l0.012-0.01l0.127-0.088l0.006-0.004l0.017-0.012l0.049-0.027l0.061-0.035l0.043-0.022l0.039-0.021l0.027-0.012l0.027-0.013l0.143-0.061l0.146-0.047l0.028-0.008l0.039-0.011l0.039-0.008l0.045-0.012l0.078-0.014l0.051-0.009l0.021-0.002l0.152-0.018l0.042-0.002h0.003l0.11-0.004l0.107 0.004h0.002l0.045 0.002l0.154 0.018l0.018 0.002l0.045 0.009l0.088 0.016l0.045 0.012l0.037 0.008l0.043 0.013l0.023 0.006l0.141 0.045l0.006 0.004l0.142 0.059l0.033 0.017l0.02 0.008l0.086 0.045l0.064 0.039l0.041 0.021l0.028 0.018l0.152 0.107l0.033 0.03l0.061 0.049l0.111 0.103l0.106 0.113l0.006 0.008l0.089 0.113l0.032 0.045l0.011 0.016l0.045 0.066l0.063 0.106l0.008 0.012l0.007 0.013l0.069 0.139l0.011 0.031l0.008 0.014l0.039 0.097l0.024 0.075l0.013 0.033l0.012 0.039l15.914 50.92l15.924-50.959l0.076-0.205l0.002-0.004l0.096-0.193l0.002-0.004l0.07-0.114l0.041-0.066l0.002-0.002l0.002-0.004l0.025-0.033l0.106-0.137l0.086-0.088l0.068-0.074l0.104-0.088l0.058-0.051l0.178-0.125l0.006-0.002l0.191-0.105l0.196-0.086l0.199-0.061l0.015-0.005l0.1-0.02l0.109-0.023l0.217-0.022h0.225l0.213 0.022h0.004l0.086 0.017l0.123 0.026l0.004 0.002l0.076 0.023l0.129 0.041h0.004l0.197 0.086l0.002 0.002h0.002l0.187 0.103l0.004 0.002l0.176 0.123l0.166 0.141l0.004 0.006l0.138 0.144l0.008 0.01l0.002 0.002l0.057 0.072l0.076 0.102l0.035 0.055l0.082 0.131l0.094 0.193l0.076 0.203l0.002 0.006l15.926 50.959l15.926-50.959l0.002-0.004v-0.002l0.023-0.062l0.051-0.137l0.096-0.197l0.002-0.004l0.08-0.127l0.033-0.053l0.002-0.002l0.002-0.004l0.074-0.098l0.057-0.072l0.007-0.008l0.147-0.154l0.103-0.088l0.059-0.051l0.178-0.125l0.191-0.105l0.201-0.088l0.133-0.041l0.08-0.025l0.104-0.02l0.105-0.023l0.219-0.022h0.223l0.212 0.022h0.004l0.086 0.017l0.125 0.026l0.004 0.002l0.209 0.064l0.196 0.086l0.005 0.002l0.192 0.105l0.174 0.123l0.166 0.141l0.004 0.006l0.148 0.154l0.002 0.002l0.131 0.17l0.002 0.004l0.035 0.055l0.082 0.131l0.094 0.193l0.002 0.004l0.074 0.199v0.002l0.002 0.004l15.924 50.959l15.925-50.959l0.002-0.004v-0.002l0.024-0.062l0.051-0.137l0.095-0.197l0.002-0.004l0.08-0.127l0.034-0.053l0.001-0.002l0.002-0.004l0.075-0.098l0.056-0.072l0.008-0.008l0.147-0.154l0.105-0.088l0.057-0.051l0.177-0.125l0.192-0.105h0.002l0.002-0.002l0.025-0.012l0.172-0.074l0.133-0.041l0.08-0.025l0.101-0.02l0.108-0.023l0.219-0.022h0.222l0.213 0.022h0.004l0.109 0.023l0.1 0.02l0.006 0.002l0.209 0.064l0.195 0.086l0.002 0.002h0.002l0.188 0.103l0.004 0.002l0.175 0.123l0.166 0.141l0.004 0.006l0.149 0.154l0.002 0.002l0.13 0.17l0.002 0.004l0.036 0.055l0.082 0.131l0.093 0.193l0.002 0.004l0.075 0.199l0.001 0.006l15.694 50.221l4.664-18.657l-0.156-0.216l-0.162-0.272l-0.135-0.281l-0.112-0.293l-0.084-0.305l-0.054-0.306l-0.03-0.315v-0.312l0.03-0.313l0.054-0.309l0.084-0.302l0.112-0.293l0.135-0.283l0.162-0.27l0.183-0.254l0.207-0.236l0.227-0.217l0.246-0.195l0.262-0.174l0.275-0.149l0.287-0.123l0.301-0.097l0.305-0.071l0.31-0.041l0.315-0.013h68.449v-67.094l-25.805-6.451l-0.08-0.024l-0.045-0.011l-0.019-0.008h-0.002l-0.088-0.033l-0.096-0.036l-0.062-0.031l-0.039-0.017l-0.069-0.037l-0.025-0.012l-0.008-0.004l-0.035-0.02l-0.108-0.07l-0.035-0.021l-0.045-0.036l-0.066-0.048l-0.051-0.043l-0.01-0.008l-0.007-0.008l-0.049-0.041l-0.102-0.1l-0.008-0.007l-0.101-0.118l-0.024-0.031l-0.009-0.012l-0.016-0.023l-0.043-0.057l-0.066-0.099l-0.01-0.018l-0.008-0.012l-0.061-0.107l-0.029-0.055l-0.025-0.06l-0.026-0.053l-0.015-0.041l-0.02-0.047l-0.013-0.043l-0.004-0.012l-0.037-0.123l-0.008-0.025l-0.002-0.006l-0.008-0.035l-0.023-0.109l-0.006-0.043l-0.006-0.026l-0.002-0.021l-0.01-0.063l-0.012-0.152v-0.154l0.002-0.032v-0.013l0.002-0.026l0.006-0.084l0.01-0.068l0.004-0.041l0.006-0.025l0.002-0.018l0.031-0.15l0.006-0.018v-0.004l0.006-0.019l0.031-0.108l0.013-0.037l0.014-0.045l0.016-0.033l0.01-0.029l0.058-0.127l0.004-0.01v-0.002l0.002-0.002l0.072-0.137l0.024-0.039l0.008-0.011l0.011-0.018l0.039-0.061l0.069-0.091l0.006-0.01l0.001-0.002l0.016-0.022l0.102-0.117l0.107-0.107l0.033-0.028l0.041-0.041l0.039-0.029l0.004-0.004l0.123-0.094l0.008-0.005l0.026-0.016l0.095-0.063l0.041-0.023l0.024-0.014l0.025-0.011l0.045-0.026l0.111-0.051l0.016-0.007l0.004-0.002l0.01-0.004l0.142-0.055l0.028-0.008l0.019-0.008l50.961-15.925l-50.961-15.924l-0.004-0.002l-0.199-0.074l-0.006-0.002l-0.195-0.098l-0.182-0.113l-0.004-0.002l-0.051-0.041l-0.119-0.09l-0.158-0.15l-0.004-0.004l-0.039-0.047l-0.099-0.115l-0.002-0.004l-0.123-0.176l-0.002-0.004l-0.108-0.191l-0.084-0.198l-0.002-0.004l-0.062-0.203l-0.002-0.006l-0.02-0.099l-0.023-0.11v-0.003l-0.022-0.213v-0.225l0.022-0.213v-0.004l0.023-0.109l0.02-0.1l0.002-0.006l0.062-0.203l0.086-0.201l0.096-0.172l0.012-0.019l0.002-0.004l0.123-0.176l0.002-0.004l0.099-0.115l0.039-0.047l0.002-0.002l0.002-0.002l0.158-0.15l0.17-0.129l0.004-0.004l0.137-0.084l0.045-0.029l0.004-0.002l0.007-0.004l0.184-0.09l0.006-0.002l0.199-0.074l0.004-0.002l50.961-15.926l-50.961-15.926l-0.004-0.002l-0.199-0.074l-0.006-0.002l-0.184-0.09l-0.011-0.006l-0.045-0.029l-0.137-0.084l-0.004-0.004l-0.17-0.131l-0.002-0.002l-0.156-0.148v-0.002l-0.004-0.002l-0.019-0.023l-0.119-0.137l-0.125-0.182l-0.002-0.004l-0.108-0.189l-0.084-0.197l-0.002-0.004l-0.062-0.205l-0.002-0.004l-0.02-0.102l-0.023-0.107v-0.006l-0.022-0.213v-0.223l0.022-0.213v-0.005l0.023-0.108l0.02-0.101l0.002-0.004l0.062-0.205l0.086-0.202l0.096-0.171l0.012-0.02l0.002-0.004l0.123-0.174l0.002-0.004l0.099-0.115l0.039-0.047l0.004-0.004l0.158-0.15l0.17-0.131l0.004-0.004l0.186-0.115l0.131-0.064l0.06-0.03l0.006-0.002l0.199-0.074l0.004-0.002l50.963-15.924l-50.963-15.925l-0.004-0.002l-0.199-0.075l-0.006-0.002l-0.184-0.089l-0.011-0.006l-0.045-0.03l-0.137-0.084l-0.004-0.003l-0.17-0.131l-0.002-0.002l-0.156-0.149v-0.002l-0.004-0.002l-0.039-0.047l-0.099-0.115l-0.125-0.177l-0.002-0.006l-0.104-0.186l-0.004-0.006l-0.058-0.138l-0.026-0.057l-0.002-0.004v-0.002l-0.062-0.203l-0.002-0.004l-0.026-0.125l-0.017-0.086v-0.004l-0.022-0.213v-0.222l0.022-0.213v-0.004l0.017-0.086l0.026-0.125l0.002-0.004l0.062-0.203v-0.002l0.002-0.004l0.026-0.057l0.058-0.138l0.004-0.006l0.104-0.188l0.002-0.004l0.123-0.173l0.002-0.004l0.099-0.116l0.039-0.046l0.004-0.002v-0.002l0.156-0.149l0.002-0.002l0.17-0.131l0.004-0.003l0.137-0.084l0.045-0.03l0.004-0.002l0.007-0.004l0.184-0.089l0.006-0.002l0.199-0.075l0.004-0.002l51.559-16.111l-20.323-7.619l-0.158 0.094l-0.281 0.136l-0.293 0.11l-0.305 0.084l-0.308 0.056l-0.313 0.028h-0.312l-0.315-0.028l-0.306-0.056l-0.303-0.084l-0.295-0.11l-0.281-0.136l-0.272-0.16l-0.254-0.184l-0.234-0.207l-0.219-0.229l-0.193-0.244l-0.174-0.261l-0.148-0.278l-0.123-0.289l-0.098-0.297l-0.07-0.306l-0.041-0.311l-0.014-0.314l-0.067-141.475h-63.699l-0.486-0.025l-0.481-0.078l-0.468-0.131l-0.451-0.18l-0.432-0.229l-0.402-0.273l-0.372-0.314l-0.334-0.354l-0.294-0.389l-0.252-0.416l-0.206-0.441l-0.154-0.463l-0.105-0.475l-0.051-0.484v-0.486l0.051-0.485l0.105-0.474l0.154-0.463l0.206-0.442l0.252-0.418l0.294-0.386l0.334-0.354l0.372-0.314l0.402-0.274l0.432-0.228l0.451-0.18l0.468-0.131l0.481-0.078l0.486-0.027h134.891z"/>
		<circle cx="464.5" cy="433.4" r="7.306"/>
		<circle cx="464.5" cy="505.3" r="7.306"/>
		<circle cx="464.5" cy="649.2" r="7.306"/>
		<path id="Positive" d="m504.74 53.388v-4.907h-4.87v-2.051h4.87v-4.871h2.075v4.871h4.871v2.051h-4.871v4.907h-2.075z" fill="#f8141f"><title>Positive Voltage</title></path>
		<rect id="Negative" x="505.271" y="772.65" width="6.75" height="2.209" fill="blue"><title>Negative/Zero Voltage (Ground)</title></rect>

		<g id="Input">
			<title>Input Pin</title>

			<path id="connector0pin" d="m179.348 434.111l-34.8-34.8h-133.6v69.6h133.6l34.8-34.8z" fill="#fff" stroke="#000" stroke-width="2.5"/>
			<rect id="IInInput" x="19.025" y="416.552" width="4.547" height="34.359"/>
			<path id="nInInput" d="m31.048 450.911v-24.891h3.797v3.539c1.828-2.734 4.469-4.101 7.922-4.101c1.5 0 2.879 0.269 4.136 0.808c1.258 0.54 2.2 1.247 2.825 2.122c0.625 0.875 1.062 1.914 1.312 3.117c0.156 0.781 0.235 2.148 0.235 4.101v15.305h-4.219v-15.141c0-1.718-0.164-3.004-0.492-3.855c-0.328-0.852-0.911-1.531-1.746-2.039c-0.836-0.508-1.817-0.762-2.942-0.762c-1.797 0-3.348 0.57-4.652 1.711c-1.305 1.141-1.957 3.305-1.957 6.492v13.594h-4.219z"/>
			<path id="pInInput" d="m57.743 460.45v-34.43h3.844v3.235c0.906-1.266 1.93-2.215 3.07-2.848c1.141-0.633 2.524-0.949 4.149-0.949c2.125 0 4 0.547 5.625 1.641c1.625 1.093 2.851 2.636 3.679 4.628c0.829 1.993 1.243 4.176 1.243 6.551c0 2.547-0.457 4.84-1.371 6.879c-0.914 2.039-2.243 3.602-3.985 4.688c-1.742 1.086-3.574 1.628-5.496 1.629c-1.406-0.001-2.668-0.297-3.785-0.891c-1.117-0.594-2.035-1.344-2.754-2.25v12.117h-4.219zm3.821-21.844c0 3.203 0.648 5.571 1.945 7.102c1.297 1.531 2.867 2.297 4.711 2.297c1.875 0 3.48-0.793 4.816-2.379c1.336-1.586 2.004-4.043 2.004-7.371c0-3.172-0.652-5.547-1.957-7.125c-1.305-1.578-2.863-2.367-4.676-2.367c-1.796 0-3.386 0.839-4.769 2.519c-1.383 1.68-2.074 4.121-2.074 7.324z"/>
			<path id="uInInput" d="m100.751 450.911v-3.656c-1.937 2.812-4.57 4.218-7.898 4.219c-1.469-0.001-2.84-0.282-4.114-0.844c-1.273-0.563-2.218-1.27-2.836-2.121c-0.617-0.852-1.05-1.895-1.3-3.129c-0.172-0.828-0.258-2.141-0.258-3.938v-15.422h4.219v13.805c0 2.203 0.086 3.688 0.257 4.453c0.266 1.11 0.829 1.981 1.688 2.613c0.859 0.633 1.922 0.95 3.187 0.95c1.266 0 2.454-0.325 3.563-0.973c1.109-0.648 1.894-1.531 2.355-2.648c0.461-1.118 0.692-2.739 0.692-4.864v-13.336h4.219v24.891h-3.774z"/>
			<path id="tInInput" d="m120.345 447.138l0.609 3.726c-1.187 0.25-2.25 0.375-3.187 0.375c-1.531 0-2.719-0.242-3.563-0.726c-0.843-0.485-1.437-1.122-1.781-1.911c-0.344-0.789-0.516-2.449-0.516-4.98v-14.32h-3.093v-3.282h3.093v-6.164l4.196-2.531v8.695h4.242v3.282h-4.242v14.554c0 1.203 0.074 1.977 0.222 2.321c0.149 0.343 0.391 0.617 0.727 0.82c0.336 0.203 0.816 0.305 1.441 0.305c0.469 0 1.086-0.055 1.852-0.164z"/>
		</g>

		<g id="Switch1">
			<title>Switch</title>

			<path id="SInSwitch1" d="m485.439 576.649l4.468-0.391c0.211 1.791 0.704 3.26 1.477 4.407c0.773 1.148 1.973 2.075 3.601 2.783c1.628 0.708 3.459 1.062 5.493 1.062c1.807 0 3.402-0.268 4.785-0.805c1.384-0.537 2.413-1.274 3.089-2.21c0.675-0.936 1.013-1.957 1.013-3.064c0-1.123-0.326-2.103-0.977-2.942c-0.651-0.838-1.725-1.542-3.222-2.112c-0.961-0.374-3.085-0.956-6.372-1.745c-3.288-0.79-5.591-1.534-6.91-2.234c-1.709-0.895-2.982-2.006-3.82-3.333c-0.839-1.326-1.258-2.811-1.258-4.455c0-1.807 0.513-3.495 1.538-5.066c1.026-1.571 2.523-2.763 4.493-3.577c1.969-0.813 4.158-1.22 6.567-1.22c2.653 0 4.993 0.427 7.019 1.281c2.026 0.855 3.585 2.112 4.675 3.772c1.091 1.661 1.677 3.54 1.758 5.64l-4.541 0.342c-0.244-2.263-1.07-3.972-2.478-5.127c-1.408-1.156-3.487-1.734-6.238-1.734c-2.864 0-4.952 0.525-6.262 1.575c-1.31 1.05-1.965 2.315-1.965 3.797c0 1.285 0.464 2.343 1.391 3.173c0.912 0.83 3.292 1.681 7.141 2.552c3.85 0.87 6.49 1.631 7.923 2.282c2.083 0.961 3.621 2.177 4.614 3.65c0.993 1.473 1.489 3.17 1.489 5.091c0 1.904-0.545 3.698-1.635 5.383c-1.091 1.684-2.658 2.995-4.7 3.931c-2.043 0.935-4.342 1.403-6.897 1.403c-3.239 0-5.953-0.472-8.142-1.416c-2.189-0.944-3.906-2.364-5.152-4.26c-1.245-1.896-1.9-4.04-1.965-6.433z"/>
			<path id="Number1InSwitch1" d="m535.13 588.139h-4.395v-28.003c-1.058 1.009-2.445 2.018-4.163 3.027c-1.717 1.01-3.259 1.766-4.626 2.271v-4.248c2.458-1.156 4.606-2.555 6.445-4.199c1.839-1.644 3.142-3.239 3.907-4.786h2.832v35.938z"/>
		</g>


		<g id="Resistor">
			<title>100Ω Resistor</title>

			<g id="Resistor1">
				<path id="RInResistor1" d="m233.058 329.313v-35.791h15.869c3.19 0 5.615 0.321 7.275 0.964c1.66 0.643 2.987 1.778 3.98 3.406c0.993 1.628 1.489 3.426 1.489 5.396c0 2.539-0.822 4.679-2.466 6.421c-1.644 1.741-4.183 2.848-7.617 3.32c1.253 0.602 2.205 1.196 2.856 1.782c1.384 1.27 2.694 2.856 3.931 4.761l6.226 9.741h-5.957l-4.737-7.446c-1.383-2.149-2.523-3.793-3.418-4.932c-0.895-1.139-1.696-1.937-2.404-2.393c-0.708-0.455-1.429-0.773-2.161-0.952c-0.537-0.114-1.416-0.171-2.637-0.171h-5.493v15.894h-4.736zm4.736-19.995h10.181c2.164 0 3.857-0.224 5.078-0.672c1.22-0.447 2.148-1.163 2.783-2.148c0.635-0.985 0.952-2.055 0.952-3.21c0-1.693-0.614-3.085-1.843-4.175c-1.229-1.091-3.17-1.636-5.823-1.636h-11.328v11.841z"/>
				<use id="Number1InResistor1" xlink:href="#Number1InSwitch1" x="-251.308" y="-258.826"/>
			</g>

			<g id="Ohm100">
				<use id="Number1InOhm100" xlink:href="#Number1InSwitch1" x="-287.386" y="-208.867"/>
				<path id="Number0InOhm100" d="m258.989 361.635c0-4.232 0.435-7.638 1.306-10.218c0.871-2.579 2.165-4.569 3.882-5.969c1.717-1.4 3.878-2.1 6.482-2.1c1.92 0 3.605 0.387 5.053 1.16c1.449 0.773 2.645 1.888 3.589 3.345c0.944 1.457 1.685 3.231 2.222 5.322c0.537 2.092 0.806 4.911 0.806 8.46c0 4.199-0.432 7.588-1.294 10.168c-0.863 2.58-2.153 4.574-3.87 5.982c-1.717 1.407-3.886 2.111-6.506 2.111c-3.451 0-6.161-1.237-8.13-3.711c-2.36-2.978-3.54-7.828-3.54-14.55zm4.516 0c0 5.875 0.688 9.786 2.063 11.731c1.376 1.945 3.073 2.917 5.091 2.917c2.018 0 3.715-0.976 5.09-2.93c1.375-1.953 2.063-5.859 2.063-11.718c0-5.892-0.688-9.807-2.063-11.744c-1.375-1.936-3.088-2.905-5.139-2.905c-2.018 0-3.63 0.855-4.834 2.564c-1.514 2.181-2.271 6.209-2.271 12.085z"/>
				<use id="Hundred0InOhm100" xlink:href="#Number0InOhm100" x="27.807"/>
				<path id="OmegaInOhm100" d="m314.852 375.052h7.813c-4.948-4.134-7.422-9.179-7.422-15.136c0-3.239 0.651-6.145 1.953-8.716c1.302-2.572 3.141-4.602 5.517-6.091c2.377-1.49 5.233-2.234 8.57-2.234c3.304 0 6.058 0.683 8.264 2.05c2.205 1.368 4.02 3.329 5.444 5.884c1.424 2.556 2.136 5.591 2.136 9.107c0 5.957-2.474 11.002-7.421 15.136h7.812v4.224h-13.916v-3.955c5.794-2.702 8.691-7.593 8.691-14.673c0-3.988-1.021-7.271-3.064-9.851-2.042-2.58-4.699-3.87-7.971-3.87-3.369 0-6.063 1.298-8.081 3.894-2.018 2.596-3.027 5.791-3.027 9.583c0 7.178 2.881 12.15 8.642 14.917v3.955h-13.94v-4.224z"/>
			</g>
		</g>

		<g id="Pullup">
			<title>10kΩ Pull-up Resistor</title>

			<g id="Resistor2">
				<path id="RInResistor2" d="m568.53 230.69h35.791v15.869c0 3.19-0.321 5.615-0.964 7.275c-0.643 1.661-1.778 2.987-3.406 3.98c-1.628 0.993-3.426 1.489-5.396 1.489c-2.539 0-4.679-0.822-6.421-2.466c-1.741-1.643-2.848-4.183-3.32-7.617c-0.602 1.253-1.196 2.206-1.782 2.857c-1.27 1.383-2.856 2.693-4.761 3.93l-9.741 6.226v-5.957l7.446-4.736c2.149-1.384 3.793-2.523 4.932-3.418c1.139-0.896 1.937-1.697 2.393-2.405c0.455-0.708 0.773-1.428 0.952-2.161c0.114-0.537 0.171-1.416 0.171-2.637v-5.493h-15.894v-4.736zm19.995 4.736v10.181c0 2.165 0.224 3.857 0.672 5.078c0.447 1.221 1.163 2.149 2.148 2.783c0.985 0.635 2.055 0.952 3.21 0.952c1.693 0 3.085-0.614 4.175-1.843c1.091-1.229 1.636-3.17 1.636-5.823v-11.328h-11.841z"/>
				<path id="Number2InResistor2" d="m572.75 287.992h-4.224v-23.658c1.058-0.032 2.075 0.139 3.052 0.513c1.611 0.602 3.198 1.567 4.76 2.893c1.563 1.327 3.37 3.243 5.42 5.75c3.191 3.89 5.717 6.518 7.581 7.885c1.864 1.368 3.625 2.051 5.286 2.051c1.741 0 3.21-0.622 4.406-1.868c1.197-1.245 1.795-2.868 1.795-4.87c0-2.116-0.635-3.809-1.904-5.078c-1.27-1.27-3.028-1.913-5.274-1.929l0.464-4.517c3.369 0.31 5.937 1.473 7.703 3.492c1.766 2.018 2.649 4.728 2.649 8.13c0 3.434-0.953 6.152-2.857 8.154c-1.904 2.002-4.264 3.003-7.08 3.003c-1.432 0-2.84-0.293-4.224-0.879c-1.383-0.586-2.84-1.559-4.37-2.918c-1.53-1.359-3.629-3.617-6.299-6.775c-2.213-2.636-3.715-4.329-4.504-5.078c-0.789-0.748-1.583-1.367-2.38-1.855v17.554z"/>
			</g>

			<g id="Ohm10k">
				<path id="Number1InOhm10k" d="m518.571 245.377v-4.394h28.003c-1.009-1.058-2.018-2.446-3.027-4.163c-1.01-1.717-1.766-3.259-2.271-4.626h4.248c1.156 2.457 2.555 4.606 4.199 6.445c1.644 1.839 3.239 3.141 4.785 3.906v2.832h-35.937z"/>
				<path id="Number0InOhm10k" d="m536.208 256.622c4.232 0 7.638 0.435 10.218 1.306c2.579 0.871 4.569 2.165 5.969 3.882c1.4 1.717 2.099 3.878 2.099 6.482c0 1.921-0.386 3.605-1.159 5.054c-0.773 1.448-1.888 2.645-3.345 3.589c-1.457 0.944-3.231 1.684-5.322 2.221c-2.092 0.537-4.911 0.806-8.46 0.806c-4.199 0-7.588-0.431-10.168-1.294c-2.58-0.863-4.574-2.153-5.982-3.87c-1.407-1.717-2.111-3.886-2.111-6.506c0-3.45 1.237-6.16 3.711-8.13c2.978-2.36 7.828-3.54 14.55-3.54zm0 4.517c-5.875 0-9.786 0.687-11.731 2.063c-1.945 1.375-2.917 3.072-2.917 5.09c0 2.018 0.976 3.715 2.93 5.09c1.953 1.376 5.859 2.063 11.718 2.063c5.892 0 9.807-0.687 11.744-2.063c1.936-1.375 2.905-3.088 2.905-5.139c0-2.018-0.855-3.629-2.564-4.834c-2.181-1.513-6.209-2.27-12.085-2.27z"/>
				<path id="kInOhm10k" d="m518.571 285.651h35.791v4.394h-20.41l10.547 10.401v5.688l-9.619-9.912l-16.309 10.913v-5.42l13.257-8.569l-2.979-3.101h-10.278v-4.394z"/>
				<path id="OmegaInOhm10k" d="m522.791 309.679v7.812c4.134-4.948 9.179-7.422 15.136-7.422c3.239 0 6.145 0.651 8.716 1.953c2.572 1.303 4.602 3.142 6.091 5.518c1.49 2.376 2.234 5.233 2.234 8.569c0 3.304-0.683 6.059-2.05 8.265c-1.368 2.205-3.329 4.02-5.884 5.444c-2.556 1.424-5.591 2.136-9.107 2.136c-5.957 0-11.002-2.474-15.136-7.422v7.813h-4.224v-13.916h3.955c2.702 5.794 7.593 8.691 14.673 8.691c3.988 0 7.271-1.021 9.851-3.064c2.58-2.043 3.87-4.7 3.87-7.971c0-3.369-1.298-6.063-3.894-8.081c-2.596-2.018-5.791-3.027-9.583-3.027c-7.178 0-12.15 2.88-14.917 8.642h-3.955v-13.94h4.224z"/>
			</g>
		</g>

		<g id="Vin">
			<title>Input Voltage</title>

			<path id="V" d="M411.655,53.791l-13.867,-35.791l5.127,0l9.301,26.001c0.749,2.083 1.376,4.036 1.88,5.859c0.554,-1.953 1.197,-3.906 1.929,-5.859l9.668,-26.001l4.834,0l-14.014,35.791l-4.858,0l0,0Z"/>
			<g id="in">
				<path id="i" d="M433.334,23.054l0,-5.054l4.395,0l0,5.054l-4.395,0l0,0Zm0,30.737l0,-25.928l4.395,0l0,25.928l-4.395,0Z"/>
				<path id="n" d="M444.418,53.791l0,-25.928l3.955,0l0,3.687c1.905,-2.849 4.655,-4.273 8.252,-4.273c1.563,0 2.999,0.281 4.309,0.843c1.311,0.561 2.291,1.298 2.942,2.209c0.651,0.912 1.107,1.994 1.367,3.247c0.163,0.814 0.245,2.238 0.245,4.273l0,15.942l-4.395,0l0,-15.771c0,-1.791 -0.171,-3.13 -0.513,-4.017c-0.341,-0.887 -0.948,-1.595 -1.818,-2.124c-0.871,-0.529 -1.893,-0.793 -3.064,-0.793c-1.872,0 -3.488,0.594 -4.847,1.782c-1.359,1.188 -2.038,3.443 -2.038,6.763l0,14.16l-4.395,0l0,0Z"/>
			</g>
		</g>
	</g>
</svg>
